<?xml version="1.0" encoding="UTF-8"?>
<svg width="761px" height="711px" viewBox="0 0 761 711" version="1.1" xmlns="http://www.w3.org/2000/svg" xmlns:xlink="http://www.w3.org/1999/xlink">
    <title>Shape</title>
    <g id="Page-1" stroke="none" stroke-width="1" fill="none" fill-rule="evenodd" fill-opacity="0.85">
        <g id="hammer.fill" transform="translate(0, -11)" fill="#FFFFFF" fill-rule="nonzero">
            <path d="M645.091,361.741 C654.613,371.262 666.087,371.995 675.853,362.229 L753.49,284.836 C762.767,275.559 762.279,263.596 752.513,254.075 L733.226,235.276 C722.972,224.778 716.624,223.313 704.906,224.29 L678.05,226.975 L657.054,206.223 L665.355,171.555 C669.505,153.977 663.646,136.887 646.068,119.309 L583.812,57.7857 C519.115,-5.69088 379.222,-2.27291 321.605,59.983 C310.618,72.19 312.083,84.6412 319.163,92.9419 C324.29,99.2896 334.3,103.44 343.089,99.2896 C389.964,77.3169 439.036,71.7017 480.052,91.9654 L453.197,158.127 C445.14,178.635 449.534,193.284 462.962,207.2 L520.824,265.061 C530.833,274.827 540.843,277.512 556.956,274.338 L596.507,266.282 L617.503,287.522 L615.062,313.889 C614.085,326.34 615.062,332.932 625.804,343.186 L645.091,361.741 Z M16.6732,669.114 L52.0735,704.514 C76.7318,729.417 107.493,727.219 132.64,698.899 L495.677,288.254 C493.968,286.545 492.503,285.081 490.794,283.372 L440.99,233.323 C439.281,231.858 437.327,229.661 435.618,228.196 L23.5091,589.524 C-5.2995,614.67 -7.49676,644.7 16.6732,669.114 Z" id="Shape"></path>
        </g>
    </g>
</svg>